PathFileType	4	(X/Y/Z)	Patient4_TMGait_0pt6_01_right_33.trc.trc
DataRate	CameraRate	NumFrames	NumMarkers	Units	OrigDataRate	OrigDataStartFrame	OrigNumFrames
80.459770114943	80.459770114943	4	33	mm	80.459770114943	1	       141
Frame#	Time	Sacral			L.Shoulder			Chest			R.Shoulder			Neck			R.ASIS			L.ASIS			R.Thigh.Superior			R.Thigh.Lateral			R.Thigh.Inferior			R.Patella			L.Thigh.Superior			L.Thigh.Lateral			L.Thigh.Inferior			L.Patella			L.Shank.Superior			L.Shank.Lateral			L.Shank.Inferior			R.Shank.Superior			R.Shank.Lateral			R.Shank.Inferior			R.Heel			R.Midfoot.Superior			R.Midfoot.Lateral			R.Toe			L.Heel			L.Midfoot.Lateral			L.Midfoot.Superior			L.Toe			L.Elbow			L.Wrist			R.Elbow			R.Wrist			
		X1	Y1	Z1	X2	Y2	Z2	X3	Y3	Z3	X4	Y4	Z4	X5	Y5	Z5	X6	Y6	Z6	X7	Y7	Z7	X8	Y8	Z8	X9	Y9	Z9	X10	Y10	Z10	X11	Y11	Z11	X12	Y12	Z12	X13	Y13	Z13	X14	Y14	Z14	X15	Y15	Z15	X16	Y16	Z16	X17	Y17	Z17	X18	Y18	Z18	X19	Y19	Z19	X20	Y20	Z20	X21	Y21	Z21	X22	Y22	Z22	X23	Y23	Z23	X24	Y24	Z24	X25	Y25	Z25	X26	Y26	Z26	X27	Y27	Z27	X28	Y28	Z28	X29	Y29	Z29	X30	Y30	Z30	X31	Y31	Z31	X32	Y32	Z32	X33	Y33	Z33	

1	39.560000000000	727.344337443013	1014.808881989762	451.441932852548	908.025086266316	1442.847176111957	275.250036053067	1009.864158804401	1369.675768605235	434.459447966261	927.476551627229	1441.093731910925	609.275263181791	905.545137769139	1502.001757860797	427.715300481394	953.056731732057	949.034042466100	566.449033678486	943.055682437977	969.356407827512	291.678648283273	1039.908358630775	786.147375419905	536.586070277005	1007.386579756369	665.337927230582	612.674881727575	1098.965681000939	629.208477718294	532.781440984751	1122.284688575527	513.448376405500	555.074502711696	977.024333081879	749.490259724558	319.949737554031	876.981311536309	638.885413697884	270.580224018857	957.912455050654	557.035754038229	331.841242609427	953.570440070288	488.441832579338	345.876164536905	926.932819633378	418.475103110781	340.693690217566	834.377900584497	304.434967558426	294.934167206759	883.390875613323	194.843601236120	370.808732545039	1040.473583749735	440.658634349455	561.852344183156	915.046380977911	409.227431075745	618.761226105196	894.625332142953	301.409277414226	570.998660730973	693.778552020702	264.409507608391	537.019233011671	847.931006640031	175.671514965730	581.259652242470	737.017063627764	189.781883047561	607.601221337561	891.114992077637	51.334207260126	600.856881485738	751.506179112313	39.904040756754	419.160905575721	826.244892054202	35.897153155588	339.154014136584	910.219268591491	96.212688671863	364.586657679478	1038.427866852025	40.567346251814	338.771543967345	928.604034678268	1098.636567432957	130.590237360243	1125.119521070221	925.300506793427	137.645965117608	866.232289390387	1093.818884335411	717.612585498624	929.205750261969	838.420536594929	716.018109433996	
2	39.572428571429	726.203598899220	1015.431243177680	450.736634630879	909.178786636970	1443.160995411436	274.826629858944	1009.888330715020	1369.716348675285	434.556663550813	926.910563002713	1441.516620331638	608.871803052357	905.771950152582	1502.315270785603	427.222550636756	952.006805794774	949.658115688187	566.215570712901	942.388234775761	969.802521923868	291.375556411451	1040.666047316450	790.041395369327	535.741424951717	1011.186871196111	668.667190853412	612.294134629133	1103.202074850482	634.460465576938	532.191543660430	1129.173787965976	519.796062513530	554.449715532037	973.718219928246	748.921441411699	319.732024512567	872.113917548715	639.533014635372	269.998528205137	951.814521737571	556.696047048020	331.093150041920	946.665762139810	488.502408807614	344.969941309627	919.905257492984	418.741245012386	339.828753752159	826.719008932064	305.075301843501	294.426935148315	875.812210599545	195.298754588824	370.063785272718	1050.628331096383	444.425554792598	560.872011073390	927.170253806558	407.273114496398	617.855797587966	911.532248628684	299.022156186201	569.493565175080	712.620097411555	252.095729793152	536.104114603778	870.962308672583	172.210869332381	579.186913410321	760.133343929285	180.450458017470	606.548496050880	920.889910751343	51.049652087982	598.982174025710	743.619486188460	40.557204598285	418.780059051159	818.403684094686	36.038875233363	338.971288457175	902.499769906931	96.303037681327	364.160255532867	1030.548691696474	40.431467768774	338.663246319325	934.782022186082	1100.427346978339	129.208502819362	1138.112056824367	936.624567060643	137.640468305837	857.259952424792	1096.631511116551	717.308628064874	908.022298892237	839.561196093837	716.099554848330	
3	39.584857142857	725.089992782604	1016.022192082980	450.052072164088	910.297765298868	1443.432206852406	274.426228218363	1009.910800650835	1369.734522498517	434.669319364690	926.348614507698	1441.921822549035	608.488496005002	905.992381608602	1502.595489655538	426.749156432648	950.966904577023	950.243482882579	566.007262996494	941.732945731103	970.209441053842	291.107306600510	1041.360387111241	793.802686965238	534.925292769157	1014.831468377529	671.864307208891	611.879949692937	1107.240724279419	639.526116839514	531.567787171773	1135.796098165444	525.988314859017	553.802096904822	970.500009757056	748.343079919938	319.547766203595	867.354135265046	640.150125081305	269.446991738313	945.827696012977	556.347882957101	330.396666371364	939.878762271771	488.545139070057	344.124508509594	912.988269054802	418.984149405173	339.022036922289	819.187457159777	305.691831378411	293.959004943742	868.330745766786	195.729349977017	369.369152720480	1060.565266661444	448.063256236277	559.918911920178	939.170581108896	405.147231041611	617.010781684215	928.398013856516	296.492936752067	568.107873162896	731.602396182207	239.525781349671	535.297452500776	894.032559065193	168.668784080178	577.340611327343	783.342224067087	171.014148875448	605.694878581078	950.701946247461	50.814991813767	597.454055333879	735.815760922978	41.197704700231	418.415736424957	810.638013820391	36.183545567201	338.798656987673	894.854893254569	96.395166952121	363.754516647489	1022.746105104478	40.298551595679	338.554702273014	940.844862877446	1102.163517123275	127.883732465830	1150.817650281106	947.836295577529	137.697035177928	848.344351080347	1099.483319793695	717.048393360710	887.270052899789	840.858625517170	716.113321394974	
4	39.597285714286	724.040153184673	1016.534911453940	449.411617752735	911.363340198541	1443.608593889720	274.074286582248	1009.935286702621	1369.695535729478	434.819371150570	925.794109496331	1442.279307875498	608.148418295430	906.202749313772	1502.799238254812	426.317254209415	949.956514892463	950.743767157260	565.859004309774	941.105172568060	970.522721315696	290.915044847577	1041.911220768020	797.246576700520	534.179102790339	1018.120186074703	674.756985537066	611.435905692089	1110.833797418457	644.158131272105	530.904663486346	1141.840894321765	531.834478646887	553.125144085268	967.433257593896	747.728649744504	319.443262616410	862.781677525316	640.699753076628	268.959527091763	940.023643956362	555.970123478129	329.810889290674	933.284325963050	488.542883114783	343.401970070832	906.250449556640	419.175152069019	338.332341777581	811.864124109644	306.256655313299	293.568573514267	860.994590929555	196.106379060852	368.775967374798	1070.046988583998	451.432790309592	559.032142989631	950.976363860211	402.675573276373	616.310256437402	945.237650200822	293.721890143082	566.950662354321	751.009637529516	226.493676708731	534.714263867344	917.269908459333	165.034150048184	575.896269841783	806.880639774817	161.418442675843	605.204030561011	980.670218689129	50.793434276127	596.505757844338	728.130412271639	41.804082003479	418.086066607752	802.977314091069	36.329765059208	338.647135047341	887.312330298213	96.486398008357	363.392131228275	1015.050610391238	40.171791021271	338.447827678310	946.682802381931	1103.775373074642	126.679580147408	1162.957715033444	958.816620391641	137.890471355349	839.546433294931	1102.396850237779	716.863311414577	867.337148996445	842.439326516580	716.042242723942	
